<svg width="20" height="20" viewBox="0 0 20 20" fill="none" xmlns="http://www.w3.org/2000/svg">
<path d="M10 7.32257C9.20435 7.32257 8.44129 7.62087 7.87868 8.15184C7.31607 8.68281 7 9.40297 7 10.1539C7 10.9048 7.31607 11.6249 7.87868 12.1559C8.44129 12.6869 9.20435 12.9852 10 12.9852C10.7956 12.9852 11.5587 12.6869 12.1213 12.1559C12.6839 11.6249 13 10.9048 13 10.1539C13 9.40297 12.6839 8.68281 12.1213 8.15184C11.5587 7.62087 10.7956 7.32257 10 7.32257Z" fill="#717171"/>
<path fill-rule="evenodd" clip-rule="evenodd" d="M6 0.716187C4.4087 0.716187 2.88258 1.31278 1.75736 2.37473C0.632141 3.43667 0 4.87698 0 6.3788L0 13.9289C0 15.4308 0.632141 16.8711 1.75736 17.933C2.88258 18.995 4.4087 19.5916 6 19.5916H14C15.5913 19.5916 17.1174 18.995 18.2426 17.933C19.3679 16.8711 20 15.4308 20 13.9289V6.3788C20 4.87698 19.3679 3.43667 18.2426 2.37473C17.1174 1.31278 15.5913 0.716187 14 0.716187L6 0.716187ZM5.33333 10.1539C5.33333 8.98579 5.825 7.86555 6.70017 7.03959C7.57534 6.21364 8.76232 5.74962 10 5.74962C11.2377 5.74962 12.4247 6.21364 13.2998 7.03959C14.175 7.86555 14.6667 8.98579 14.6667 10.1539C14.6667 11.3219 14.175 12.4422 13.2998 13.2681C12.4247 14.0941 11.2377 14.5581 10 14.5581C8.76232 14.5581 7.57534 14.0941 6.70017 13.2681C5.825 12.4422 5.33333 11.3219 5.33333 10.1539ZM14.6667 5.74962H16V4.49126H14.6667V5.74962Z" fill="#717171"/>
</svg>
