<svg width="20" height="20" viewBox="0 0 20 20" fill="none" xmlns="http://www.w3.org/2000/svg">
<path d="M15.439 0.716187H4.56103C3.35137 0.716187 2.19125 1.1697 1.33589 1.97696C0.480535 2.78422 0 3.8791 0 5.02074V15.287C0 16.4286 0.480535 17.5235 1.33589 18.3308C2.19125 19.138 3.35137 19.5916 4.56103 19.5916H15.439C16.6486 19.5916 17.8088 19.138 18.6641 18.3308C19.5195 17.5235 20 16.4286 20 15.287V5.02074C20 3.8791 19.5195 2.78422 18.6641 1.97696C17.8088 1.1697 16.6486 0.716187 15.439 0.716187ZM6.76205 15.9539C6.76527 16.0066 6.75704 16.0594 6.73786 16.1089C6.71869 16.1585 6.68898 16.2039 6.65056 16.2422C6.61214 16.2806 6.56582 16.3111 6.51444 16.3319C6.46306 16.3528 6.40771 16.3635 6.3518 16.3634H4.52615C4.41606 16.3608 4.31141 16.3177 4.2347 16.2431C4.15798 16.1685 4.11533 16.0685 4.1159 15.9646V8.79872C4.11439 8.74698 4.12389 8.69548 4.14383 8.64727C4.16377 8.59906 4.19375 8.55511 4.232 8.51802C4.27024 8.48093 4.31598 8.45146 4.36651 8.43134C4.41703 8.41122 4.47132 8.40086 4.52615 8.40088H6.3518C6.40663 8.40086 6.46092 8.41122 6.51144 8.43134C6.56197 8.45146 6.60771 8.48093 6.64595 8.51802C6.6842 8.55511 6.71418 8.59906 6.73412 8.64727C6.75406 8.69548 6.76356 8.74698 6.76205 8.79872V15.9539ZM5.40513 6.89375C5.20747 6.89236 5.01204 6.85423 4.83 6.78155C4.64796 6.70887 4.48286 6.60307 4.34415 6.47017C4.20543 6.33728 4.09581 6.1799 4.02154 6.00702C3.94726 5.83415 3.9098 5.64916 3.91128 5.46262C3.91276 5.27607 3.95316 5.09163 4.03017 4.91983C4.10718 4.74802 4.21929 4.59221 4.3601 4.46129C4.50091 4.33038 4.66767 4.22692 4.85085 4.15682C5.03402 4.08673 5.23004 4.05137 5.42769 4.05277C5.82002 4.06481 6.19182 4.22108 6.46378 4.48822C6.73573 4.75536 6.8863 5.11223 6.88336 5.48268C6.88042 5.85313 6.72419 6.20783 6.44802 6.47109C6.17185 6.73435 5.7976 6.88533 5.40513 6.89182M16.4995 15.9423C16.499 16.0401 16.4583 16.1339 16.386 16.204C16.3137 16.274 16.2154 16.3149 16.1118 16.3179H14.1846C14.0809 16.3149 13.9824 16.2739 13.9101 16.2036C13.8377 16.1334 13.7971 16.0393 13.7969 15.9413V12.627C13.7969 12.1324 13.9569 10.4752 12.4062 10.4752C11.1969 10.4752 10.9579 11.6368 10.9118 12.1537V16.0168C10.9118 16.115 10.8714 16.2093 10.799 16.2798C10.7266 16.3502 10.628 16.3913 10.5241 16.3944H8.65436C8.54845 16.3941 8.44697 16.3542 8.37218 16.2834C8.29739 16.2127 8.25538 16.1168 8.25538 16.0168V8.76387C8.25858 8.66577 8.30214 8.57271 8.37681 8.50441C8.45148 8.4361 8.5514 8.39793 8.65539 8.39798H10.5241C10.6281 8.39793 10.728 8.4361 10.8027 8.50441C10.8774 8.57271 10.9209 8.66577 10.9241 8.76387V9.38821C11.197 9.0113 11.5737 8.71186 12.0136 8.52217C12.4535 8.33248 12.94 8.25975 13.4205 8.31183C16.5333 8.31183 16.5221 11.056 16.5221 12.6164L16.4995 15.9423Z" fill="#717171"/>
</svg>
