<svg width="20" height="20" viewBox="0 0 20 20" fill="none" xmlns="http://www.w3.org/2000/svg">
<path d="M16.25 0.716187C17.283 0.716187 18.1662 1.06232 18.8997 1.75458C19.6332 2.44684 20 3.28042 20 4.25532V16.0524C20 17.0273 19.6332 17.8609 18.8997 18.5532C18.1662 19.2454 17.283 19.5916 16.25 19.5916H6.8099C7.54774 18.5921 8.01649 17.7319 8.21615 17.0109C8.29427 16.7324 8.52431 15.8763 8.90625 14.4426C9.08854 14.7621 9.40755 15.0366 9.86328 15.2659C10.319 15.4953 10.8073 15.61 11.3281 15.61C12.8993 15.61 14.1819 15.0058 15.1758 13.7975C16.1697 12.5891 16.6667 11.0591 16.6667 9.20764C16.6667 8.51948 16.5148 7.85384 16.2109 7.21074C15.9071 6.56763 15.4883 5.99826 14.9544 5.50262C14.4206 5.00697 13.7587 4.60964 12.9688 4.31062C12.1788 4.01159 11.3238 3.86208 10.4036 3.86208C9.50087 3.86208 8.65668 3.97882 7.87109 4.21231C7.0855 4.44579 6.42144 4.75915 5.87891 5.15239C5.33637 5.54563 4.86979 5.99416 4.47917 6.498C4.08854 7.00183 3.79991 7.52615 3.61328 8.07094C3.42665 8.61574 3.33333 9.15849 3.33333 9.69919C3.33333 10.5348 3.50477 11.2721 3.84766 11.9111C4.19054 12.5502 4.69618 13.0007 5.36458 13.2629C5.47743 13.3039 5.57943 13.3039 5.67057 13.2629C5.76172 13.2219 5.82465 13.1441 5.85938 13.0294C5.94618 12.6689 6.01128 12.4191 6.05469 12.2798C6.10677 12.0914 6.05903 11.9193 5.91146 11.7637C5.47743 11.2558 5.26042 10.6413 5.26042 9.92039C5.26042 8.69152 5.70964 7.64084 6.60807 6.76835C7.50651 5.89585 8.68056 5.45961 10.1302 5.45961C11.4236 5.45961 12.4327 5.7914 13.1576 6.45499C13.8824 7.11857 14.2448 7.97878 14.2448 9.0356C14.2448 10.4119 13.9518 11.5834 13.3659 12.5502C12.7799 13.5169 12.0269 14.0002 11.1068 14.0002C10.5859 14.0002 10.1649 13.822 9.84375 13.4657C9.52257 13.1093 9.42274 12.6853 9.54427 12.1938C9.61372 11.9152 9.72873 11.5363 9.88932 11.0571C10.0499 10.5778 10.178 10.16 10.2734 9.80364C10.3689 9.44727 10.4167 9.1421 10.4167 8.88814C10.4167 8.48671 10.3016 8.15287 10.0716 7.88661C9.84158 7.62036 9.51389 7.48723 9.08854 7.48723C8.55903 7.48723 8.10981 7.71867 7.74089 8.18154C7.37196 8.64441 7.1875 9.21584 7.1875 9.89581C7.1875 10.4857 7.29167 10.9813 7.5 11.3827L6.22396 16.4702C6.01562 17.2895 5.98524 18.3299 6.13281 19.5916H3.75C2.71701 19.5916 1.83377 19.2454 1.10026 18.5532C0.366753 17.8609 0 17.0273 0 16.0524V4.25532C0 3.28042 0.366753 2.44684 1.10026 1.75458C1.83377 1.06232 2.71701 0.716187 3.75 0.716187H16.25Z" fill="#717171"/>
</svg>
