<svg width="20" height="20" viewBox="0 0 20 20" fill="none" xmlns="http://www.w3.org/2000/svg">
<path d="M2.85714 0.716187C1.28125 0.716187 0 1.92539 0 3.41267V16.8951C0 18.3824 1.28125 19.5916 2.85714 19.5916H17.1429C18.7188 19.5916 20 18.3824 20 16.8951V3.41267C20 1.92539 18.7188 0.716187 17.1429 0.716187H2.85714ZM15.683 7.76496C15.683 11.4178 12.7366 15.6269 7.35268 15.6269C5.69196 15.6269 4.15179 15.1719 2.85714 14.3882C3.09375 14.4135 3.32143 14.4219 3.5625 14.4219C4.93304 14.4219 6.19196 13.9837 7.19643 13.2422C5.91071 13.2169 4.83036 12.4206 4.45982 11.3252C4.91071 11.3884 5.31696 11.3884 5.78125 11.2746C4.44196 11.0176 3.4375 9.90529 3.4375 8.56126V8.52755C3.82589 8.734 4.28125 8.8604 4.75893 8.87725C4.35714 8.62446 4.02679 8.28319 3.79911 7.88293C3.57143 7.48267 3.45089 7.03185 3.45536 6.57682C3.45536 6.0628 3.59821 5.59092 3.85268 5.18223C5.29464 6.85911 7.45982 7.95455 9.88839 8.07252C9.47321 6.19763 10.9598 4.67664 12.7455 4.67664C13.5893 4.67664 14.3482 5.00949 14.8839 5.54879C15.5446 5.43081 16.1786 5.19909 16.7411 4.88309C16.5223 5.52351 16.0625 6.0628 15.4554 6.40408C16.0446 6.34509 16.6161 6.1892 17.1429 5.97432C16.7455 6.52626 16.2455 7.015 15.6741 7.40683C15.683 7.5248 15.683 7.64699 15.683 7.76496Z" fill="#717171"/>
</svg>
