<svg width="20" height="20" viewBox="0 0 20 20" fill="none" xmlns="http://www.w3.org/2000/svg">
<path d="M15.4545 0.716187C16.0515 0.716187 16.6425 0.851805 17.194 1.1153C17.7455 1.37879 18.2466 1.765 18.6687 2.25187C19.0908 2.73874 19.4256 3.31675 19.654 3.95287C19.8824 4.589 20 5.2708 20 5.95934V14.3484C20 15.0369 19.8824 15.7187 19.654 16.3549C19.4256 16.991 19.0908 17.569 18.6687 18.0559C18.2466 18.5427 17.7455 18.9289 17.194 19.1924C16.6425 19.4559 16.0515 19.5916 15.4545 19.5916H4.54545C3.94854 19.5916 3.35746 19.4559 2.80598 19.1924C2.2545 18.9289 1.75342 18.5427 1.33133 18.0559C0.478895 17.0726 0 15.739 0 14.3484V5.95934C0 4.56877 0.478895 3.23515 1.33133 2.25187C2.18377 1.26859 3.33993 0.716187 4.54545 0.716187H15.4545ZM7.27273 7.00798V13.2998C7.27285 13.4852 7.31561 13.6673 7.39665 13.8275C7.47768 13.9876 7.59408 14.1202 7.73399 14.2115C7.8739 14.3029 8.03231 14.3498 8.19307 14.3475C8.35383 14.3452 8.51118 14.2938 8.64909 14.1984L13.1945 11.0525C13.329 10.9593 13.4402 10.8276 13.5174 10.6701C13.5946 10.5126 13.6352 10.3348 13.6352 10.1539C13.6352 9.97296 13.5946 9.79512 13.5174 9.63765C13.4402 9.48017 13.329 9.34842 13.1945 9.25519L8.64909 6.1093C8.51118 6.01398 8.35383 5.96255 8.19307 5.96025C8.03231 5.95796 7.8739 6.00488 7.73399 6.09623C7.59408 6.18758 7.47768 6.3201 7.39665 6.48027C7.31561 6.64044 7.27285 6.82253 7.27273 7.00798Z" fill="#717171"/>
</svg>
